#Comment line ignore any data following # character 
#Hierarchical Translation and Rotation (.htr) file 
[Header]	
#Header keywords are followed by a single value 
FileType HTR		#Single word string
DataType HTRS		#Translation followed by rotation and scale data
FileVersion 1		#integer
NumSegments 84		#integer
NumFrames 2		#integer
DataFrameRate 30		#integer, data frame rate in this file
EulerRotationOrder ZYX
CalibrationUnits mm
RotationUnits Degrees
GlobalAxisofGravity Y
BoneLengthAxis Y
ScaleFactor 1.00
[SegmentNames&Hierarchy]
#CHILD	PARENT
MASTER GLOBAL
root MASTER
chest root
L_mid_tent01 root
R_mid_tent01 root
spine01 root
Bip01_Neck chest
L_humerus chest
R_humerus chest
weapon_bone chest
Bip01_Head Bip01_Neck
eye_left_bone Bip01_Head
eye_right_bone Bip01_Head
L_forearm L_humerus
L_front_hand L_forearm
L_weapon_bone L_forearm
L_front_hand01_01 L_front_hand
L_front_hand02_01 L_front_hand
L_front_hand03_01 L_front_hand
L_front_hand01_02 L_front_hand01_01
L_front_hand02_02 L_front_hand02_01
L_front_hand03_02 L_front_hand03_01
R_forearm R_humerus
R_front_hand R_forearm
R_weapon_bone R_forearm
R_front_hand01_01 R_front_hand
R_front_hand02_01 R_front_hand
R_front_hand03_01 R_front_hand
R_front_hand01_02 R_front_hand01_01
R_front_hand02_02 R_front_hand02_01
R_front_hand03_02 R_front_hand03_01
null_rope01_connect L_mid_tent01
Rope1_Seg01 null_rope01_connect
Rope1_Seg02 Rope1_Seg01
Rope1_Seg03 Rope1_Seg02
Rope1_Seg04 Rope1_Seg03
Rope1_Seg05 Rope1_Seg04
Rope1_Seg06 Rope1_Seg05
Rope1_Seg07 Rope1_Seg06
Rope1_Seg09 Rope1_Seg07
L_mid_hand01 Rope1_Seg09
L_mid_hand02 Rope1_Seg09
L_mid_hand03 Rope1_Seg09
null_rope02_connect R_mid_tent01
Rope2_Seg01 null_rope02_connect
Rope2_Seg02 Rope2_Seg01
Rope2_Seg03 Rope2_Seg02
Rope2_Seg04 Rope2_Seg03
Rope2_Seg05 Rope2_Seg04
Rope2_Seg06 Rope2_Seg05
Rope2_Seg07 Rope2_Seg06
Rope2_Seg09 Rope2_Seg07
R_mid_hand01 Rope2_Seg09
R_mid_hand02 Rope2_Seg09
R_mid_hand03 Rope2_Seg09
spine02 spine01
spine03 spine02
pelvis spine03
null_rope03_connect pelvis
null_rope04_connect pelvis
Rope3_Seg01 null_rope03_connect
Rope3_Seg02 Rope3_Seg01
Rope3_Seg03 Rope3_Seg02
Rope3_Seg04 Rope3_Seg03
Rope3_Seg05 Rope3_Seg04
Rope3_Seg06 Rope3_Seg05
Rope3_Seg07 Rope3_Seg06
Rope3_Seg08 Rope3_Seg07
Rope3_Seg09 Rope3_Seg08
R_rear_hand01 Rope3_Seg09
R_rear_hand02 Rope3_Seg09
R_rear_hand03 Rope3_Seg09
Rope4_Seg01 null_rope04_connect
Rope4_Seg02 Rope4_Seg01
Rope4_Seg03 Rope4_Seg02
Rope4_Seg04 Rope4_Seg03
Rope4_Seg05 Rope4_Seg04
Rope4_Seg06 Rope4_Seg05
Rope4_Seg07 Rope4_Seg06
Rope4_Seg08 Rope4_Seg07
Rope4_Seg09 Rope4_Seg08
L_rear_hand01 Rope4_Seg09
L_rear_hand02 Rope4_Seg09
L_rear_hand03 Rope4_Seg09
[BasePosition]
#SegmentName Tx, Ty, Tz, Rx, Ry, Rz, BoneLength
MASTER 0.000000 0.000000 0.000000 -90.000000 0.000000 0.000000 10.000000 
root 0.000000 0.000000 0.000000 0.000000 0.000000 0.000000 10.000000 
chest 0.000000 0.000000 0.000000 0.000000 0.000000 0.000000 10.000000 
L_mid_tent01 0.000000 0.000000 0.000000 0.000000 0.000000 0.000000 10.000000 
R_mid_tent01 0.000000 0.000000 0.000000 0.000000 0.000000 0.000000 10.000000 
spine01 0.000000 0.000000 0.000000 0.000000 0.000000 0.000000 10.000000 
Bip01_Neck 0.000000 0.000000 0.000000 0.000000 0.000000 0.000000 10.000000 
L_humerus 0.000000 0.000000 0.000000 0.000000 0.000000 0.000000 10.000000 
R_humerus 0.000000 0.000000 0.000000 0.000000 0.000000 0.000000 10.000000 
weapon_bone 0.000000 0.000000 0.000000 0.000000 0.000000 0.000000 10.000000 
Bip01_Head 0.000000 0.000000 0.000000 0.000000 0.000000 0.000000 10.000000 
eye_left_bone 0.000000 0.000000 0.000000 0.000000 0.000000 0.000000 10.000000 
eye_right_bone 0.000000 0.000000 0.000000 0.000000 0.000000 0.000000 10.000000 
L_forearm 0.000000 0.000000 0.000000 0.000000 0.000000 0.000000 10.000000 
L_front_hand 0.000000 0.000000 0.000000 0.000000 0.000000 0.000000 10.000000 
L_weapon_bone 0.000000 0.000000 0.000000 0.000000 0.000000 0.000000 10.000000 
L_front_hand01_01 0.000000 0.000000 0.000000 0.000000 0.000000 0.000000 10.000000 
L_front_hand02_01 0.000000 0.000000 0.000000 0.000000 0.000000 0.000000 10.000000 
L_front_hand03_01 0.000000 0.000000 0.000000 0.000000 0.000000 0.000000 10.000000 
L_front_hand01_02 0.000000 0.000000 0.000000 0.000000 0.000000 0.000000 10.000000 
L_front_hand02_02 0.000000 0.000000 0.000000 0.000000 0.000000 0.000000 10.000000 
L_front_hand03_02 0.000000 0.000000 0.000000 0.000000 0.000000 0.000000 10.000000 
R_forearm 0.000000 0.000000 0.000000 0.000000 0.000000 0.000000 10.000000 
R_front_hand 0.000000 0.000000 0.000000 0.000000 0.000000 0.000000 10.000000 
R_weapon_bone 0.000000 0.000000 0.000000 0.000000 0.000000 0.000000 10.000000 
R_front_hand01_01 0.000000 0.000000 0.000000 0.000000 0.000000 0.000000 10.000000 
R_front_hand02_01 0.000000 0.000000 0.000000 0.000000 0.000000 0.000000 10.000000 
R_front_hand03_01 0.000000 0.000000 0.000000 0.000000 0.000000 0.000000 10.000000 
R_front_hand01_02 0.000000 0.000000 0.000000 0.000000 0.000000 0.000000 10.000000 
R_front_hand02_02 0.000000 0.000000 0.000000 0.000000 0.000000 0.000000 10.000000 
R_front_hand03_02 0.000000 0.000000 0.000000 0.000000 0.000000 0.000000 10.000000 
null_rope01_connect 0.000000 0.000000 0.000000 0.000000 0.000000 0.000000 10.000000 
Rope1_Seg01 0.000000 0.000000 0.000000 0.000000 0.000000 0.000000 10.000000 
Rope1_Seg02 0.000000 0.000000 0.000000 0.000000 0.000000 0.000000 10.000000 
Rope1_Seg03 0.000000 0.000000 0.000000 0.000000 0.000000 0.000000 10.000000 
Rope1_Seg04 0.000000 0.000000 0.000000 0.000000 0.000000 0.000000 10.000000 
Rope1_Seg05 0.000000 0.000000 0.000000 0.000000 0.000000 0.000000 10.000000 
Rope1_Seg06 0.000000 0.000000 0.000000 0.000000 0.000000 0.000000 10.000000 
Rope1_Seg07 0.000000 0.000000 0.000000 0.000000 0.000000 0.000000 10.000000 
Rope1_Seg09 0.000000 0.000000 0.000000 0.000000 0.000000 0.000000 10.000000 
L_mid_hand01 0.000000 0.000000 0.000000 0.000000 0.000000 0.000000 10.000000 
L_mid_hand02 0.000000 0.000000 0.000000 0.000000 0.000000 0.000000 10.000000 
L_mid_hand03 0.000000 0.000000 0.000000 0.000000 0.000000 0.000000 10.000000 
null_rope02_connect 0.000000 0.000000 0.000000 0.000000 0.000000 0.000000 10.000000 
Rope2_Seg01 0.000000 0.000000 0.000000 0.000000 0.000000 0.000000 10.000000 
Rope2_Seg02 0.000000 0.000000 0.000000 0.000000 0.000000 0.000000 10.000000 
Rope2_Seg03 0.000000 0.000000 0.000000 0.000000 0.000000 0.000000 10.000000 
Rope2_Seg04 0.000000 0.000000 0.000000 0.000000 0.000000 0.000000 10.000000 
Rope2_Seg05 0.000000 0.000000 0.000000 0.000000 0.000000 0.000000 10.000000 
Rope2_Seg06 0.000000 0.000000 0.000000 0.000000 0.000000 0.000000 10.000000 
Rope2_Seg07 0.000000 0.000000 0.000000 0.000000 0.000000 0.000000 10.000000 
Rope2_Seg09 0.000000 0.000000 0.000000 0.000000 0.000000 0.000000 10.000000 
R_mid_hand01 0.000000 0.000000 0.000000 0.000000 0.000000 0.000000 10.000000 
R_mid_hand02 0.000000 0.000000 0.000000 0.000000 0.000000 0.000000 10.000000 
R_mid_hand03 0.000000 0.000000 0.000000 0.000000 0.000000 0.000000 10.000000 
spine02 0.000000 0.000000 0.000000 0.000000 0.000000 0.000000 10.000000 
spine03 0.000000 0.000000 0.000000 0.000000 0.000000 0.000000 10.000000 
pelvis 0.000000 0.000000 0.000000 0.000000 0.000000 0.000000 10.000000 
null_rope03_connect 0.000000 0.000000 0.000000 0.000000 0.000000 0.000000 10.000000 
null_rope04_connect 0.000000 0.000000 0.000000 0.000000 0.000000 0.000000 10.000000 
Rope3_Seg01 0.000000 0.000000 0.000000 0.000000 0.000000 0.000000 10.000000 
Rope3_Seg02 0.000000 0.000000 0.000000 0.000000 0.000000 0.000000 10.000000 
Rope3_Seg03 0.000000 0.000000 0.000000 0.000000 0.000000 0.000000 10.000000 
Rope3_Seg04 0.000000 0.000000 0.000000 0.000000 0.000000 0.000000 10.000000 
Rope3_Seg05 0.000000 0.000000 0.000000 0.000000 0.000000 0.000000 10.000000 
Rope3_Seg06 0.000000 0.000000 0.000000 0.000000 0.000000 0.000000 10.000000 
Rope3_Seg07 0.000000 0.000000 0.000000 0.000000 0.000000 0.000000 10.000000 
Rope3_Seg08 0.000000 0.000000 0.000000 0.000000 0.000000 0.000000 10.000000 
Rope3_Seg09 0.000000 0.000000 0.000000 0.000000 0.000000 0.000000 10.000000 
R_rear_hand01 0.000000 0.000000 0.000000 0.000000 0.000000 0.000000 10.000000 
R_rear_hand02 0.000000 0.000000 0.000000 0.000000 0.000000 0.000000 10.000000 
R_rear_hand03 0.000000 0.000000 0.000000 0.000000 0.000000 0.000000 10.000000 
Rope4_Seg01 0.000000 0.000000 0.000000 0.000000 0.000000 0.000000 10.000000 
Rope4_Seg02 0.000000 0.000000 0.000000 0.000000 0.000000 0.000000 10.000000 
Rope4_Seg03 0.000000 0.000000 0.000000 0.000000 0.000000 0.000000 10.000000 
Rope4_Seg04 0.000000 0.000000 0.000000 0.000000 0.000000 0.000000 10.000000 
Rope4_Seg05 0.000000 0.000000 0.000000 0.000000 0.000000 0.000000 10.000000 
Rope4_Seg06 0.000000 0.000000 0.000000 0.000000 0.000000 0.000000 10.000000 
Rope4_Seg07 0.000000 0.000000 0.000000 0.000000 0.000000 0.000000 10.000000 
Rope4_Seg08 0.000000 0.000000 0.000000 0.000000 0.000000 0.000000 10.000000 
Rope4_Seg09 0.000000 0.000000 0.000000 0.000000 0.000000 0.000000 10.000000 
L_rear_hand01 0.000000 0.000000 0.000000 0.000000 0.000000 0.000000 10.000000 
L_rear_hand02 0.000000 0.000000 0.000000 0.000000 0.000000 0.000000 10.000000 
L_rear_hand03 0.000000 0.000000 0.000000 0.000000 0.000000 0.000000 10.000000 
#Beginning of Data. Separated by tabs
#Fr	Tx	Ty	Tz	Rx	Ry	Rz	SF
[MASTER]
3 -322.405182 570.410400 384.965698 0.001660 0.001660 0.001660 759.941895
4 -481.054138 858.807495 587.935547 0.001660 0.001660 0.001660 1146.573853
[root]
3 -17.320440 2.701530 1450.397949 -88.473732 -11.771588 -90.593239 1450.503906
4 -18.264772 -0.940940 1452.796387 -84.863335 -11.998590 -91.833176 1452.911499
[chest]
3 -84.512650 -34.090519 0.000000 1.865886 0.275416 164.008820 91.129311
4 -84.512650 -34.090519 0.000000 4.431667 0.744364 161.780533 91.129311
[L_mid_tent01]
3 27.299055 22.179245 -249.918732 -14.247844 14.143549 30.383175 252.381714
4 27.299044 22.179237 -249.918747 -10.855087 14.466911 39.188507 252.381729
[R_mid_tent01]
3 23.228794 24.509907 226.238495 -174.781342 -16.045805 38.563816 228.744751
4 23.228794 24.509907 226.238495 -179.535721 -13.714245 45.770657 228.744751
[spine01]
3 -0.361383 -0.195265 0.000000 0.001983 0.001257 25.265663 0.410763
4 -0.361383 -0.195265 0.000000 0.002002 0.001225 27.063108 0.410763
[Bip01_Neck]
3 165.484543 71.581718 0.000119 176.643677 -1.657967 43.431911 180.302734
4 165.484543 71.581718 0.000119 176.643677 -1.657967 43.431911 180.302734
[L_humerus]
3 -13.983130 -135.272980 -120.471481 -6.059233 67.264008 83.923363 181.680161
4 -13.983130 -135.272980 -120.471481 -6.284952 66.585564 83.674629 181.680161
[R_humerus]
3 -13.983309 -135.273102 125.287651 27.046503 -68.213219 68.627136 184.909012
4 -13.983309 -135.273102 125.287651 26.741209 -67.503693 68.942406 184.909012
[weapon_bone]
3 235.964890 -300.705902 0.000000 0.000000 -89.951546 -128.212341 382.234833
4 235.964890 -300.705902 0.000000 0.000000 -89.951546 -128.212341 382.234833
[Bip01_Head]
3 213.439529 185.728043 11.612873 4.965622 3.295105 -43.893162 283.171661
4 213.437210 185.734436 11.530825 4.968140 4.047607 -43.875534 283.170776
[eye_left_bone]
3 -24.626970 125.451866 -64.772606 0.000000 -90.000000 -99.840431 143.318359
4 -24.626970 125.451866 -64.772606 0.000000 -90.000000 -99.840431 143.318359
[eye_right_bone]
3 -24.626970 125.451866 64.327362 0.000000 -89.965736 80.156380 143.117676
4 -24.626970 125.451866 64.327362 0.000000 -89.965736 80.156380 143.117676
[L_forearm]
3 322.776093 0.000000 -0.000119 0.000407 -0.002312 -109.964386 322.776093
4 322.776093 0.000000 -0.000119 0.000411 -0.002311 -110.193703 322.776093
[L_front_hand]
3 241.149185 -0.042021 -3.300071 -178.667953 -1.835447 -27.422350 241.171753
4 241.149185 -0.042021 -3.300071 -178.667953 -1.835447 -27.422350 241.171753
[L_weapon_bone]
3 156.183838 0.000000 0.000000 0.000014 0.000007 0.000001 156.183838
4 156.183838 0.000000 0.000000 0.000014 0.000007 0.000001 156.183838
[L_front_hand01_01]
3 86.095154 20.947098 -0.655860 -0.366594 -0.477154 75.385574 88.609184
4 86.095154 20.947098 -0.655860 -0.365371 -0.478091 75.092094 88.609184
[L_front_hand02_01]
3 86.935165 -11.437475 24.513514 154.399796 -59.883835 -61.369587 91.046425
4 86.935165 -11.437475 24.513514 153.946487 -59.758568 -60.843468 91.046425
[L_front_hand03_01]
3 86.637497 -14.123976 -20.424902 -153.913849 58.118122 -62.702866 90.126129
4 86.637497 -14.123976 -20.424902 -153.504349 57.989803 -62.217342 90.126129
[L_front_hand01_02]
3 71.020905 -0.000179 0.000030 0.000320 -0.002325 -105.686226 71.020905
4 71.020905 -0.000179 0.000030 0.000320 -0.002325 -105.648979 71.020905
[L_front_hand02_02]
3 71.020927 -0.000119 0.000060 0.000320 -0.002325 -105.686226 71.020927
4 71.020927 -0.000119 0.000060 0.000320 -0.002325 -105.648979 71.020927
[L_front_hand03_02]
3 71.020905 -0.000060 0.000060 0.000320 -0.002325 -105.686226 71.020905
4 71.020905 -0.000060 0.000060 0.000320 -0.002325 -105.648979 71.020905
[R_forearm]
3 322.776428 -0.000060 0.000030 0.201788 0.066125 -108.611824 322.776428
4 322.776428 -0.000060 0.000030 0.201651 0.066543 -108.849144 322.776428
[R_front_hand]
3 238.847015 -0.006795 2.210259 -2.635298 -10.645461 -26.312506 238.857239
4 238.847015 -0.006795 2.210259 -2.635298 -10.645461 -26.312506 238.857239
[R_weapon_bone]
3 155.664093 0.002503 -0.000030 0.003487 0.001180 -90.988930 155.664078
4 155.664093 0.002503 -0.000030 0.003487 0.001180 -90.988930 155.664078
[R_front_hand01_01]
3 87.624611 14.231146 22.918642 -154.633499 -59.950619 61.746044 91.683487
4 87.624611 14.231146 22.918642 -154.238968 -59.839840 61.284889 91.683487
[R_front_hand02_01]
3 89.356956 14.367283 -19.491137 154.602661 58.302849 63.744389 92.579636
4 89.356956 14.367283 -19.491137 154.231567 58.196690 63.311184 92.579636
[R_front_hand03_01]
3 87.286232 -22.307278 -0.143439 0.162155 -0.423168 -75.767921 90.091743
4 87.286232 -22.307278 -0.143439 0.161230 -0.423521 -75.517479 90.091743
[R_front_hand01_02]
3 71.020905 0.000060 0.000119 0.002323 -0.000334 106.381714 71.020905
4 71.020905 0.000060 0.000119 0.002323 -0.000334 106.381714 71.020905
[R_front_hand02_02]
3 71.020844 -0.000030 -0.000119 0.002323 -0.000334 106.381714 71.020836
4 71.020844 -0.000030 -0.000119 0.002323 -0.000334 106.381714 71.020836
[R_front_hand03_02]
3 71.020905 0.000000 0.000030 0.002323 -0.000334 106.381714 71.020905
4 71.020905 0.000000 0.000030 0.002323 -0.000334 106.381714 71.020905
[null_rope01_connect]
3 328.732483 0.000000 -0.000238 -152.084671 -71.237473 -138.450455 328.732483
4 328.732483 0.000000 -0.000238 -143.310089 -75.915680 -155.628082 328.732483
[Rope1_Seg01]
3 0.000000 0.000000 0.000000 -1.176092 3.097033 -91.700119 0.000000
4 0.000000 0.000000 0.000000 -19.460653 12.553281 -74.777878 0.000000
[Rope1_Seg02]
3 139.999863 -0.000179 0.000000 5.921782 2.470311 -7.698119 139.999863
4 139.999863 -0.000179 0.000000 6.191578 4.783988 -12.281449 139.999863
[Rope1_Seg03]
3 139.999924 0.000060 -0.000060 16.478073 2.181941 -11.036713 139.999924
4 139.999924 0.000060 -0.000060 19.039722 4.651818 -15.594497 139.999924
[Rope1_Seg04]
3 139.999924 -0.000060 -0.000119 1.975086 0.008449 -0.967704 139.999924
4 139.999924 -0.000060 -0.000119 9.249478 -0.875838 -3.265130 139.999924
[Rope1_Seg05]
3 139.999832 0.000119 -0.000060 -17.334597 1.529574 10.455936 139.999832
4 139.999832 0.000119 -0.000060 -16.014542 0.871132 9.685354 139.999832
[Rope1_Seg06]
3 139.999954 0.000119 -0.000060 -4.367527 -0.705086 4.454387 139.999954
4 139.999954 0.000119 -0.000060 -3.487101 -0.780000 3.593551 139.999954
[Rope1_Seg07]
3 139.999985 0.000060 0.000000 -1.764431 -0.518527 2.201000 139.999985
4 139.999985 0.000060 0.000000 -1.346870 -0.531973 1.734158 139.999985
[Rope1_Seg09]
3 121.602913 0.000119 -0.000089 -89.793175 -1.359789 0.847147 121.602913
4 121.602913 0.000119 -0.000089 -89.793175 -1.359789 0.847147 121.602913
[L_mid_hand01]
3 103.859421 1.038730 8.195221 124.165955 -63.799015 -31.873352 104.187431
4 103.859421 1.038730 8.195221 119.391953 -59.659550 -26.459229 104.187431
[L_mid_hand02]
3 105.572853 -4.139662 -10.864139 -164.626358 42.318848 -67.191460 106.211075
4 105.572853 -4.139662 -10.864139 -160.502609 40.861904 -60.979630 106.211075
[L_mid_hand03]
3 104.641464 17.579376 -3.913581 -7.501869 17.251593 69.949562 106.179977
4 104.641464 17.579376 -3.913581 -8.971709 16.553080 64.913109 106.179977
[null_rope02_connect]
3 328.732849 0.000179 -0.000119 -139.002731 72.246391 -21.664768 328.732849
4 328.732849 0.000179 -0.000119 -141.092239 73.355667 -17.890261 328.732849
[Rope2_Seg01]
3 0.000040 0.000145 0.000000 88.939995 5.428997 -76.033554 0.000150
4 0.000041 0.000141 0.000000 99.394630 11.771446 -91.924973 0.000147
[Rope2_Seg02]
3 139.999741 -0.000060 -0.000119 -7.874830 8.705627 0.867995 139.999756
4 139.999741 -0.000060 -0.000119 -7.194983 18.883827 -4.185547 139.999756
[Rope2_Seg03]
3 140.000107 0.000030 0.000000 -17.705217 11.440342 1.815966 140.000107
4 140.000107 0.000030 0.000000 -27.581024 20.034149 -3.392592 140.000107
[Rope2_Seg04]
3 139.999802 0.000000 -0.000060 15.984641 -10.242344 -4.102726 139.999802
4 139.999802 0.000000 -0.000060 16.522045 -10.783655 -1.739177 139.999802
[Rope2_Seg05]
3 139.999985 -0.000060 0.000119 10.921111 -17.017086 -2.244789 139.999985
4 139.999985 -0.000060 0.000119 9.333489 -22.589487 1.721364 139.999985
[Rope2_Seg06]
3 139.999893 -0.000030 -0.000119 2.017906 -6.642857 0.429568 139.999893
4 139.999893 -0.000030 -0.000119 1.045393 -8.276440 2.162605 139.999893
[Rope2_Seg07]
3 139.999893 0.000060 -0.000060 0.898205 -3.954058 0.406148 139.999893
4 139.999893 0.000060 -0.000060 0.388511 -4.633599 1.327361 139.999893
[Rope2_Seg09]
3 121.338966 0.000089 -0.000060 33.793236 -1.359788 -0.847141 121.338966
4 121.338966 0.000089 -0.000060 33.793236 -1.359788 -0.847141 121.338966
[R_mid_hand01]
3 104.680779 11.144459 -10.335981 -18.237753 44.607113 67.592667 105.778534
4 104.680779 11.144459 -10.335981 -20.399712 43.830379 64.493820 105.778534
[R_mid_hand02]
3 104.070427 2.443552 8.231699 52.237907 -66.108360 35.844143 104.424065
4 104.070427 2.443552 8.231699 55.242668 -64.206009 32.532043 104.424065
[R_mid_hand03]
3 106.028137 -11.221827 -5.996406 -176.510086 15.433296 -74.380737 106.788818
4 106.028137 -11.221827 -5.996406 -175.861618 15.275426 -71.940247 106.788818
[spine02]
3 129.756927 0.001550 0.000119 0.412485 -4.039276 -13.704086 129.756927
4 129.756927 0.001550 0.000119 0.438851 -4.036261 -14.034025 129.756927
[spine03]
3 78.614098 0.081779 -4.899015 1.929331 3.818316 16.954147 78.766640
4 78.614105 0.081776 -4.899023 1.943640 3.811042 17.174652 78.766647
[pelvis]
3 169.435242 0.051022 0.000000 -0.062031 -0.179692 15.085137 169.435257
4 169.435242 0.051022 0.000000 -0.062688 -0.179464 15.504308 169.435257
[null_rope03_connect]
3 -1.257226 -2.466202 137.391083 -5.646063 -87.304993 63.822472 137.418976
4 -1.257226 -2.466202 137.391083 -7.044066 -83.717590 63.434849 137.418976
[null_rope04_connect]
3 -1.259640 -2.480268 -137.844437 -5.646063 -87.304993 63.822472 137.872513
4 -1.259640 -2.480268 -137.844437 -7.044066 -83.717590 63.434849 137.872513
[Rope3_Seg01]
3 0.000019 0.000042 -0.000153 -138.941818 23.052351 -98.290886 0.000159
4 0.000018 0.000025 -0.000153 -142.805176 26.228388 -104.291748 0.000156
[Rope3_Seg02]
3 139.999924 -0.000119 0.000060 -0.428276 -6.805511 -6.114378 139.999924
4 139.999924 -0.000119 0.000060 -0.642527 -8.366585 -7.693227 139.999924
[Rope3_Seg03]
3 139.999924 -0.000119 0.000119 0.209474 -7.693746 -7.954714 139.999924
4 139.999924 -0.000119 0.000119 0.244245 -9.413302 -9.577237 139.999924
[Rope3_Seg04]
3 139.999924 0.000119 0.000000 0.724629 -8.382570 -9.504173 139.999924
4 139.999924 0.000119 0.000000 1.079878 -10.358003 -11.417641 139.999924
[Rope3_Seg05]
3 139.999924 -0.000238 0.000060 0.404361 2.311026 6.934498 139.999924
4 139.999924 -0.000238 0.000060 0.337709 2.466763 5.254426 139.999924
[Rope3_Seg06]
3 139.999893 -0.000119 -0.000060 0.808105 5.541014 10.876148 139.999893
4 139.999893 -0.000119 -0.000060 1.183835 7.603396 11.455167 139.999893
[Rope3_Seg07]
3 139.999771 0.000060 -0.000119 0.355951 1.883709 4.386125 139.999771
4 139.999771 0.000060 -0.000119 0.573699 2.864394 4.657834 139.999771
[Rope3_Seg08]
3 139.999985 -0.000060 0.000000 0.380346 1.165189 2.696381 139.999985
4 139.999985 -0.000060 0.000000 0.526855 1.685999 2.740015 139.999985
[Rope3_Seg09]
3 90.185997 -0.000179 -0.000060 89.793228 -1.359877 -0.847183 90.185997
4 90.185997 -0.000179 -0.000060 89.793228 -1.359877 -0.847183 90.185997
[R_rear_hand01]
3 103.366196 -6.073594 -10.757982 -176.465668 24.425859 -70.909309 104.101845
4 103.366196 -6.073594 -10.757982 -175.114853 24.208797 -67.632149 104.101845
[R_rear_hand02]
3 100.509819 12.039542 -7.992327 -14.843726 36.213379 68.859123 101.543350
4 100.509819 12.039542 -7.992327 -16.923939 35.395069 65.303368 101.543350
[R_rear_hand03]
3 101.539970 5.215704 5.435467 73.787918 -69.202950 19.069901 101.819031
4 101.539970 5.215704 5.435467 75.730560 -66.314209 16.974052 101.819031
[Rope4_Seg01]
3 0.000009 -0.000097 -0.000153 50.408604 35.210060 -103.999893 0.000181
4 0.000008 -0.000127 -0.000153 56.501823 38.291477 -94.521271 0.000199
[Rope4_Seg02]
3 139.999985 0.000060 0.000119 -0.246401 -0.632285 1.927017 139.999985
4 139.999985 0.000060 0.000119 -0.381365 -2.642831 0.519996 139.999985
[Rope4_Seg03]
3 139.999924 0.000000 -0.000238 -0.316427 -0.788223 2.373053 139.999924
4 139.999924 0.000000 -0.000238 -0.339022 -2.924917 0.554518 139.999924
[Rope4_Seg04]
3 139.999985 0.000000 0.000119 -1.005948 -3.317282 5.539984 139.999985
4 139.999985 0.000000 0.000119 -0.477897 -7.400217 0.518256 139.999985
[Rope4_Seg05]
3 139.999802 -0.000060 -0.000119 -0.241665 0.180198 2.558424 139.999802
4 139.999802 -0.000060 -0.000119 -0.041200 -2.055633 0.734483 139.999802
[Rope4_Seg06]
3 139.999924 0.000000 0.000060 1.377417 7.121768 -6.035707 139.999924
4 139.999924 0.000000 0.000060 0.694099 10.163739 0.862820 139.999924
[Rope4_Seg07]
3 139.999802 0.000000 0.000000 0.969309 3.126112 -2.624092 139.999802
4 139.999802 0.000000 0.000000 0.866741 6.718428 0.473668 139.999802
[Rope4_Seg08]
3 139.999924 0.000000 0.000119 -0.999057 1.539228 -1.218682 139.999924
4 139.999924 0.000000 0.000119 -1.050786 2.996489 0.241350 139.999924
[Rope4_Seg09]
3 90.185791 0.000060 0.000060 -135.617828 2.228885 0.850567 90.185791
4 90.185791 0.000060 0.000060 -135.617828 2.228885 0.850567 90.185791
[L_rear_hand01]
3 101.696655 -8.392275 -7.654577 -18.919888 -34.466518 118.185951 102.329041
4 101.696655 -8.392275 -7.654577 -23.837845 -31.499460 127.199913 102.329041
[L_rear_hand02]
3 102.726799 -1.568258 5.773216 77.226944 63.386848 164.679077 102.900848
4 102.726799 -1.568258 5.773216 79.944244 55.427822 167.828537 102.900848
[L_rear_hand03]
3 104.552910 9.721220 -10.420293 -173.780411 -23.916803 -115.646591 105.519653
4 104.552910 9.721220 -10.420293 -170.300720 -22.790039 -124.406273 105.519653
